<?xml version="1.0" encoding="UTF-8"?>
<svg xmlns="http://www.w3.org/2000/svg" viewBox="0 0 1024 1024" width="1024" height="1024">

  <!-- Pure white background -->
  <rect width="1024" height="1024" fill="#FFFFFF"/>

  <!-- Maple leaf group centered -->
  <g transform="translate(512, 478) scale(3.3)">

    <!-- Main leaf — Canadian red -->
    <path d="
      M 0,-128
      C -4,-98 -9,-84 -17,-76
      L -53,-90 L -40,-58
      C -60,-50 -82,-40 -87,-33
      L -66,-12
      C -84,-6 -102,6 -99,14
      L -75,36
      C -80,46 -86,64 -82,74
      L -46,58
      C -44,76 -48,102 -42,112
      L -8,92 L -8,136 L 8,136 L 8,92
      L 42,112
      C 48,102 44,76 46,58
      L 82,74
      C 86,64 80,46 75,36
      L 99,14
      C 102,6 84,-6 66,-12
      L 87,-33
      C 82,-40 60,-50 40,-58
      L 53,-90 L 17,-76
      C 9,-84 4,-98 0,-128 Z
    " fill="#C8102E"/>

    <!-- Dollar sign — gold -->
    <text
      x="0" y="28"
      text-anchor="middle"
      dominant-baseline="middle"
      font-family="-apple-system, Helvetica Neue, Arial, sans-serif"
      font-weight="800"
      font-size="96"
      fill="#FFD700"
      stroke="#FFD700"
      stroke-width="2"
    >$</text>

  </g>

</svg>
